<?xml version="1.0" encoding="utf-8"?>
<!-- Generator: Adobe Illustrator 18.1.1, SVG Export Plug-In . SVG Version: 6.00 Build 0)  -->
<svg version="1.1" id="Capa_1" xmlns="http://www.w3.org/2000/svg" xmlns:xlink="http://www.w3.org/1999/xlink" x="0px" y="0px"
	 viewBox="-383 145 512 512" enable-background="new -383 145 512 512" xml:space="preserve">
<g>
	<path fill="#FFFFFF" d="M-211.6,381.5c37.9,0,68.8-30.9,68.8-68.8s-30.9-68.8-68.8-68.8s-68.8,30.9-68.8,68.8
		S-249.6,381.5-211.6,381.5z M-211.6,260.4c28.8,0,52.3,23.5,52.3,52.3s-23.5,52.3-52.3,52.3s-52.3-23.5-52.3-52.3
		S-240.5,260.4-211.6,260.4z"/>
	<path fill="#FFFFFF" d="M-21.9,412.5c37.9,0,68.8-30.9,68.8-68.8S16,274.9-21.9,274.9s-68.8,30.9-68.8,68.8S-59.9,412.5-21.9,412.5
		z M-21.9,291.4c28.8,0,52.3,23.5,52.3,52.3S6.9,396-21.9,396s-52.3-23.5-52.3-52.3S-50.8,291.4-21.9,291.4z"/>
	<path fill="#FFFFFF" d="M71.4,495.8c1.6,2.1,4.1,3.2,6.5,3.2c1.8,0,3.5-0.6,5-1.7c3.6-2.8,4.3-8,1.5-11.6
		c-24.7-32-62.1-50.3-102.4-50.3c-25.9,0-50.9,7.6-72.3,22.1c-3.8,2.6-4.8,7.7-2.2,11.5c2.6,3.8,7.7,4.8,11.5,2.2
		c18.7-12.6,40.5-19.3,63.1-19.3C17.3,451.9,49.8,467.9,71.4,495.8z"/>
	<path fill="#FFFFFF" d="M-211.6,413.4c-71.3,0-129.4,58-129.4,129.4c0,4.6,3.7,8.3,8.3,8.3c4.6,0,8.3-3.7,8.3-8.3
		c0-62.2,50.6-112.9,112.9-112.9s112.9,50.6,112.9,112.9c0,4.6,3.7,8.3,8.3,8.3s8.3-3.7,8.3-8.3
		C-82.2,471.5-140.3,413.4-211.6,413.4z"/>
</g>
</svg>
