<?xml version="1.0" encoding="iso-8859-1"?>
<!-- Generator: Adobe Illustrator 16.0.0, SVG Export Plug-In . SVG Version: 6.00 Build 0)  -->
<!DOCTYPE svg PUBLIC "-//W3C//DTD SVG 1.1//EN" "http://www.w3.org/Graphics/SVG/1.1/DTD/svg11.dtd">
<svg xmlns="http://www.w3.org/2000/svg" xmlns:xlink="http://www.w3.org/1999/xlink" version="1.1" id="Capa_1" x="0px" y="0px" width="512px" height="512px" viewBox="0 0 374.25 374.249" style="enable-background:new 0 0 374.25 374.249;" xml:space="preserve">
<g>
	<path d="M274.485,0v11.71h33.593l-55.974,55.974c-21.849-19.884-50.775-32.115-82.568-32.115   c-20.096,0-39.031,4.943-55.793,13.526c-0.849,0.429-1.721,0.783-2.559,1.235c-1.038,0.563-2.01,1.224-3.027,1.815   C99.01,57.403,90.35,63.827,82.534,71.644c-8.263,8.263-14.996,17.455-20.408,27.192c-0.251,0.443-0.532,0.866-0.778,1.318   c-1.446,2.679-2.716,5.426-3.951,8.191c-0.429,0.949-0.909,1.867-1.312,2.833c-0.995,2.387-1.821,4.817-2.659,7.253   c-0.492,1.424-1.046,2.819-1.487,4.257c-0.655,2.156-1.146,4.34-1.681,6.524c-0.432,1.755-0.929,3.488-1.281,5.274   c-0.435,2.196-0.698,4.415-1.015,6.633c-0.251,1.781-0.589,3.525-0.766,5.329c-0.363,3.7-0.532,7.414-0.563,11.13   c0,0.323-0.046,0.632-0.046,0.955c0,0.011,0,0.017,0,0.029c0,4.088,0.217,8.168,0.62,12.239c0.112,1.101,0.329,2.161,0.469,3.254   c0.375,2.959,0.766,5.915,1.352,8.843c0.2,0.978,0.486,1.921,0.704,2.885c0.683,3.036,1.415,6.055,2.33,9.04   c0.151,0.491,0.346,0.96,0.503,1.446c5.772,18.023,15.699,34.988,29.974,49.267c14.269,14.267,31.231,24.192,49.243,29.968   c0.498,0.16,0.969,0.355,1.47,0.515c2.974,0.915,5.99,1.642,9.015,2.321c0.978,0.229,1.927,0.516,2.91,0.71   c2.928,0.589,5.881,0.983,8.832,1.354c1.095,0.144,2.159,0.36,3.259,0.469c2.133,0.212,4.274,0.246,6.413,0.35v55.944h-26.348   v11.711h26.348v25.37h11.71v-25.376h26.349v-11.71h-26.349v-55.951c2.079-0.104,4.157-0.132,6.23-0.338   c1.781-0.177,3.508-0.509,5.269-0.76c2.238-0.32,4.475-0.584,6.696-1.023c1.761-0.35,3.465-0.847,5.203-1.275   c2.207-0.537,4.414-1.035,6.593-1.692c1.412-0.435,2.785-0.983,4.18-1.464c2.459-0.841,4.918-1.682,7.336-2.688   c0.933-0.389,1.824-0.852,2.739-1.27c2.802-1.246,5.575-2.533,8.291-3.997c0.4-0.217,0.767-0.463,1.161-0.687   c9.789-5.426,19.035-12.19,27.332-20.487c7.931-7.937,14.449-16.742,19.75-26.051c0.497-0.864,1.069-1.692,1.538-2.567   c0.549-1.007,0.972-2.053,1.486-3.076c8.44-16.646,13.301-35.4,13.301-55.308c0-31.795-12.231-60.72-32.112-82.565l55.567-55.565   V55.05h11.71V0H274.485z M256.061,88.752c2.207,2.742,4.288,5.558,6.204,8.448c0.269,0.412,0.497,0.844,0.761,1.255   c1.738,2.71,3.402,5.455,4.883,8.277c0.114,0.217,0.206,0.44,0.32,0.657c14.701,28.404,16.308,61.838,4.906,91.38   c-0.252,0.663-0.469,1.355-0.732,2.013c-0.857,2.081-1.869,4.117-2.853,6.152c-0.646,1.338-1.235,2.705-1.934,4.015   c-0.72,1.349-1.572,2.653-2.35,3.979c-1.109,1.875-2.173,3.779-3.396,5.581c-0.406,0.611-0.881,1.178-1.304,1.784   c-9.698,13.803-22.403,25.324-37.225,33.541c-0.32,0.178-0.623,0.389-0.949,0.566c-2.47,1.338-5.043,2.521-7.628,3.683   c-0.783,0.349-1.549,0.755-2.338,1.081c-2.225,0.932-4.523,1.709-6.816,2.504c-1.2,0.406-2.385,0.881-3.597,1.246   c-2.047,0.629-4.14,1.104-6.232,1.607c-1.476,0.36-2.942,0.783-4.435,1.08c-2.139,0.436-4.334,0.698-6.513,1.001   c-1.432,0.2-2.862,0.475-4.309,0.623c-3.613,0.354-7.273,0.55-10.979,0.55c-3.765,0-7.482-0.195-11.153-0.561   c-0.769-0.074-1.53-0.24-2.296-0.326c-2.916-0.349-5.815-0.749-8.654-1.321c-0.715-0.143-1.418-0.366-2.127-0.526   c-2.928-0.651-5.835-1.354-8.671-2.235c-0.286-0.085-0.572-0.212-0.86-0.297c-34.234-10.938-61.309-38.02-72.23-72.265   c-0.08-0.269-0.192-0.531-0.274-0.795c-0.889-2.864-1.598-5.804-2.256-8.763c-0.152-0.683-0.354-1.358-0.498-2.044   c-0.583-2.879-0.989-5.818-1.341-8.777c-0.086-0.726-0.24-1.444-0.314-2.176c-0.386-3.674-0.586-7.391-0.586-11.161   c0-3.706,0.2-7.365,0.558-10.979c0.14-1.43,0.414-2.839,0.614-4.257c0.303-2.196,0.572-4.403,1.001-6.559   c0.297-1.487,0.72-2.951,1.078-4.426c0.509-2.09,0.983-4.197,1.61-6.241c0.369-1.212,0.843-2.396,1.252-3.594   c0.792-2.29,1.57-4.591,2.502-6.81c0.332-0.804,0.743-1.57,1.095-2.367c1.152-2.576,2.33-5.135,3.665-7.605   c0.186-0.34,0.409-0.669,0.598-1.006c8.191-14.738,19.645-27.387,33.356-37.059c0.661-0.463,1.29-0.989,1.956-1.436   c1.756-1.184,3.614-2.224,5.441-3.308c1.375-0.814,2.728-1.692,4.131-2.436c1.261-0.672,2.584-1.235,3.865-1.867   c2.09-1.006,4.168-2.05,6.301-2.922c0.609-0.252,1.241-0.44,1.855-0.681c29.593-11.464,63.113-9.86,91.571,4.889   c0.194,0.1,0.4,0.183,0.583,0.283c2.843,1.493,5.609,3.159,8.338,4.918c0.389,0.251,0.812,0.475,1.2,0.731   c2.905,1.927,5.735,4.012,8.491,6.241c0.12,0.101,0.258,0.189,0.383,0.286c2.894,2.367,5.707,4.897,8.406,7.597   c2.698,2.698,5.226,5.503,7.593,8.402C255.849,88.46,255.947,88.612,256.061,88.752z" fill="#049f88"/>
</g>
<g>
</g>
<g>
</g>
<g>
</g>
<g>
</g>
<g>
</g>
<g>
</g>
<g>
</g>
<g>
</g>
<g>
</g>
<g>
</g>
<g>
</g>
<g>
</g>
<g>
</g>
<g>
</g>
<g>
</g>
</svg>
